<svg xmlns="http://www.w3.org/2000/svg" viewBox="0 0 100 100"><path d="M50 10c-8 0-15 6-15 14 0 3 1 6 2 8-5 3-8 8-8 14 0 10 8 18 18 18h6c10 0 18-8 18-18 0-6-3-11-8-14 1-2 2-5 2-8 0-8-7-14-15-14z" fill="#e8d5b7"/><path d="M45 20c-2 0-4-2-4-4s2-4 4-4 4 2 4 4-2 4-4 4z" fill="#c4a882"/><path d="M55 20c-2 0-4-2-4-4s2-4 4-4 4 2 4 4-2 4-4 4z" fill="#c4a882"/><path d="M50 26c-3 0-5 2-5 5v20c0 3 2 5 5 5s5-2 5-5V31c0-3-2-5-5-5z" fill="#d4b896"/><path d="M45 52c-5 0-9-4-9-9s4-9 9-9" fill="none" stroke="#c4a882" stroke-width="2"/><path d="M55 34c5 0 9 4 9 9s-4 9-9 9" fill="none" stroke="#c4a882" stroke-width="2"/></svg>
