<svg xmlns="http://www.w3.org/2000/svg" viewBox="0 0 100 100"><path d="M58 12c-6-2-13 1-15 7l-5 14c-1 2-2 5-2 7 0 6 3 11 8 14l-1 3c-2 6 1 13 7 15s13-1 15-7l5-14c1-2 2-5 2-7 0-6-3-11-8-14l1-3c2-6-1-13-7-15z" fill="#d4a050"/><path d="M52 20c-2 0-4-2-4-4s2-4 4-4 4 2 4 4-2 4-4 4z" fill="#b8862e"/><path d="M60 16c-2 0-4-2-4-4s2-4 4-4 4 2 4 4-2 4-4 4z" fill="#b8862e"/><path d="M44 28c-2 0-4-2-4-4s2-4 4-4 4 2 4 4-2 4-4 4z" fill="#b8862e"/><path d="M50 30c-4 0-7 3-7 7v12c0 4 3 7 7 7s7-3 7-7V37c0-4-3-7-7-7z" fill="#c49540"/><path d="M38 46c-5 0-9-4-9-9s4-9 9-9" fill="none" stroke="#b8862e" stroke-width="2"/><path d="M62 38c5 0 9 4 9 9s-4 9-9 9" fill="none" stroke="#b8862e" stroke-width="2"/></svg>
