<svg xmlns="http://www.w3.org/2000/svg" viewBox="0 0 100 100"><ellipse cx="50" cy="55" rx="30" ry="35" fill="#c8a070"/><ellipse cx="42" cy="50" rx="8" ry="12" fill="#d4b080" opacity="0.4"/><ellipse cx="58" cy="50" rx="8" ry="12" fill="#d4b080" opacity="0.4"/><path d="M42 22c0-6 4-10 8-10s8 4 8 10v6c0 6-4 10-8 10s-8-4-8-10v-6z" fill="#a08050"/><path d="M25 55c-6-4-8-12-4-16s10-2 16 2" fill="none" stroke="#806030" stroke-width="2"/><path d="M75 55c6-4 8-12 4-16s-10-2-16 2" fill="none" stroke="#806030" stroke-width="2"/><path d="M30 75c-4-2-6-8-3-11" fill="none" stroke="#806030" stroke-width="1.5"/><path d="M70 75c4-2 6-8 3-11" fill="none" stroke="#806030" stroke-width="1.5"/></svg>
